<svg xmlns="http://www.w3.org/2000/svg" fill="none" viewBox="0 0 24 24" stroke-width="1.5" stroke="currentColor" class="{{ $class ?? 'h-6 w-6' }}">
  <path stroke-linecap="round" stroke-linejoin="round" d="M16.72 13.06c-.27-.14-1.6-.79-1.85-.88-.25-.1-.43-.14-.61.14-.18.27-.7.88-.85 1.06-.16.18-.31.2-.58.07-.27-.14-1.14-.42-2.17-1.33-.8-.71-1.34-1.58-1.5-1.85-.16-.27-.02-.42.12-.55.12-.12.27-.31.4-.47.13-.16.17-.27.27-.45.09-.18.05-.34-.02-.47-.07-.13-.61-1.48-.84-2.03-.22-.54-.44-.46-.61-.47-.16-.01-.34-.01-.53-.01s-.5.07-.76.34c-.25.27-.98.96-.98 2.34s1.01 2.72 1.15 2.91c.14.18 1.99 3.04 4.83 4.27.67.29 1.19.46 1.6.59.67.21 1.29.18 1.77.11.54-.08 1.6-.65 1.83-1.29.23-.64.23-1.19.16-1.29-.06-.1-.25-.16-.52-.3z" />
  <path stroke-linecap="round" stroke-linejoin="round" d="M12 2.25c-5.38 0-9.75 4.37-9.75 9.75 0 1.74.45 3.36 1.24 4.76L2.25 21.75l5.07-1.35c1.33.73 2.87 1.14 4.68 1.14 5.38 0 9.75-4.37 9.75-9.75S17.38 2.25 12 2.25z" />
</svg>
